<?xml version="1.0" encoding="UTF-8" standalone="no"?>
<!-- Created with Inkscape (http://www.inkscape.org/) -->

<svg
   version="1.1"
   id="svg2"
   width="563.01331"
   height="542.81335"
   viewBox="0 0 563.01331 542.81335"
   sodipodi:docname="2905273.eps"
   xmlns:inkscape="http://www.inkscape.org/namespaces/inkscape"
   xmlns:sodipodi="http://sodipodi.sourceforge.net/DTD/sodipodi-0.dtd"
   xmlns="http://www.w3.org/2000/svg"
   xmlns:svg="http://www.w3.org/2000/svg">
  <defs
     id="defs6" />
  <sodipodi:namedview
     id="namedview4"
     pagecolor="#ffffff"
     bordercolor="#000000"
     borderopacity="0.25"
     inkscape:showpageshadow="2"
     inkscape:pageopacity="0.0"
     inkscape:pagecheckerboard="0"
     inkscape:deskcolor="#d1d1d1" />
  <g
     id="g8"
     inkscape:groupmode="layer"
     inkscape:label="ink_ext_XXXXXX"
     transform="matrix(1.3333333,0,0,-1.3333333,0,542.81333)">
    <g
       id="g10"
       transform="scale(0.1)">
      <path
         d="m 618.398,323.211 c 824.522,-430.941 2161.332,-430.949 2985.832,-0.012 824.52,430.961 824.52,1129.661 0,1560.601 -824.52,430.95 -2161.32,430.95 -2985.847,0.01 -824.516,-430.94 -824.516,-1129.65 0.015,-1560.599"
         style="fill:#f3f2f1;fill-opacity:1;fill-rule:nonzero;stroke:none"
         id="path12" />
      <path
         d="m 2061.7,778.09 37.95,-21.91 c 11.96,-6.91 31.35,-6.91 43.3,0 l 1012.83,584.75 c 11.96,6.91 11.96,18.1 0,25.01 l -37.94,21.9 c -11.96,6.91 -31.34,6.91 -43.3,0.01 L 2061.7,803.09 c -11.96,-6.899 -11.96,-18.09 0,-25"
         style="fill:#dadbd8;fill-opacity:1;fill-rule:nonzero;stroke:none"
         id="path14" />
      <path
         d="m 3711.84,860.332 c -125.41,-67.094 -328.74,-67.094 -454.15,0 -125.41,67.066 -125.41,175.848 0,242.938 125.41,67.07 328.74,67.07 454.15,0 125.41,-67.09 125.41,-175.872 0,-242.938"
         style="fill:#dadbd8;fill-opacity:1;fill-rule:nonzero;stroke:none"
         id="path16" />
      <path
         d="m 3634.22,1262 c 0,0 11.56,101.65 62.12,180.55 50.57,78.9 120.05,128.14 184.88,133.26 64.83,5.13 117.19,-54.51 47.83,-95.47 -69.37,-40.96 -192.61,-82.76 -249.32,-235.95 l -45.51,17.61"
         style="fill:#26b6a6;fill-opacity:1;fill-rule:nonzero;stroke:none"
         id="path18" />
      <path
         d="m 3679.73,1244.39 -45.51,17.61 c 0,0 11.56,101.65 62.12,180.55 50.57,78.9 120.05,128.14 184.88,133.26 2.63,0.21 5.25,0.31 7.83,0.31 39.71,0 72.83,-23.89 72.84,-51.41 0,-14.8 -9.57,-30.63 -32.84,-44.37 -69.37,-40.96 -192.61,-82.76 -249.32,-235.95"
         style="fill:#1db3a0;fill-opacity:1;fill-rule:nonzero;stroke:none"
         id="path20" />
      <path
         d="m 3653.23,1288.4 -0.69,0.2 c -1.77,0.72 -2.62,2.74 -1.9,4.51 68.41,168.49 198.65,238.84 257.96,252.5 1.86,0.44 3.72,-0.74 4.16,-2.6 0.42,-1.87 -0.73,-3.73 -2.6,-4.15 -58.1,-13.38 -185.77,-82.52 -253.1,-248.36 -0.64,-1.54 -2.26,-2.39 -3.83,-2.1"
         style="fill:#ffffff;fill-opacity:1;fill-rule:nonzero;stroke:none"
         id="path22" />
      <path
         d="m 3999.53,1286.41 c -5.87,-13.23 -20.32,-20.13 -33.76,-25.54 -13.37,-5.37 -28.03,-11.23 -35.29,-23.74 -14.63,-25.27 9.39,-60.81 -6.31,-85.42 -6.6,-10.32 -18.86,-15.76 -30.91,-17.92 -10.01,-1.87 -20.22,-1.86 -30.37,-2.71 -4.89,0.1 -9.73,0.45 -14.44,1.12 -13.93,2.03 -29.05,2.67 -41.82,-4.46 -20.08,-11.29 -26.26,-36.65 -38.46,-56.21 -14.62,-23.42 -40.49,-38.75 -67.66,-42.45 -9.03,-1.19 -25.82,-2.81 -35.02,2.31 l -1.89,1.21 -0.17,0.17 c -1.27,1.42 -2.85,3.24 -3.53,4.22 l -0.36,0.6 c -3.56,13.1 2.25,26.74 2.49,40.28 l -0.02,2.45 c -0.56,15.74 -1.01,31.39 -1.37,47.09 -0.73,28.89 -1.06,57.83 -0.87,86.74 0.21,18.77 -2.06,39.32 5.89,57.01 8.8,19.45 30.66,19.88 38.94,38.97 3.31,7.61 5.07,15.76 8.28,23.46 9.56,22.55 32.73,38.77 57.26,39.98 38.19,1.94 72.46,-28.99 110.61,-26.18 9.87,0.78 19.5,3.78 29.24,5.58 30.92,5.79 66.68,-3.02 84.07,-29.19 7.26,-10.94 10.79,-25.37 5.47,-37.37"
         style="fill:#26b6a6;fill-opacity:1;fill-rule:nonzero;stroke:none"
         id="path24" />
      <path
         d="m 3656.41,1097.74 -0.25,0.06 c -1.74,0.46 -2.78,2.25 -2.31,3.99 52.77,197.97 261.35,226.58 310.15,223.06 1.77,-0.15 3.13,-1.69 3.02,-3.49 -0.13,-1.79 -1.69,-3.14 -3.49,-3.01 -47.73,3.44 -251.76,-24.55 -303.39,-218.24 -0.44,-1.66 -2.08,-2.67 -3.73,-2.37"
         style="fill:#ffffff;fill-opacity:1;fill-rule:nonzero;stroke:none"
         id="path26" />
      <path
         d="m 3888.17,1198.06 -1.73,0.91 c -0.52,0.53 -53.71,52.97 -141.94,39.99 -1.78,-0.24 -3.44,0.96 -3.7,2.74 -0.27,1.78 0.97,3.44 2.74,3.7 91.64,13.48 146.98,-41.29 147.54,-41.84 1.26,-1.29 1.25,-3.34 -0.03,-4.61 -0.78,-0.78 -1.86,-1.08 -2.88,-0.89"
         style="fill:#ffffff;fill-opacity:1;fill-rule:nonzero;stroke:none"
         id="path28" />
      <path
         d="m 2266.26,2203.04 v -99.6 L 540.547,1107.24 v -0.1 l -53.102,-30.6 c -22.394,12.9 -40.593,45.8 -40.593,73.4 v 1677.9 c 0,2.8 1,5.8 2.5,8.5 1.593,2.7 3.796,5.1 6.195,6.5 l 393.301,227.1 c 4.8,2.7 32.804,-9 37.402,-11.8 l 3,-1.7 c 2.301,-1.4 4.801,-3.6 6.898,-6.1 2.301,-2.7 4.204,-5.6 5,-8.3 l 35.602,-102.8 1280.2,762.6 c 4.6,2.59 12,2.7 16.81,0.3 l 23.78,-13.8 c 2.41,-1.41 4.51,-3.7 6.11,-6.41 1.6,-2.69 2.5,-5.79 2.5,-8.59 v -350.41 l 0.11,-1119.89"
         style="fill:#17282f;fill-opacity:1;fill-rule:nonzero;stroke:none"
         id="path30" />
      <path
         d="M 2266.26,2103.44 487.445,1076.54 v 1737.89 l 408.703,235.91 c 2.301,-2.7 4.204,-5.6 5,-8.3 l 35.602,-102.8 6.801,-19.5 1320.099,762.19 c 1.6,-2.69 2.5,-5.79 2.5,-8.59 l 0.11,-1569.9"
         style="fill:#273e47;fill-opacity:1;fill-rule:nonzero;stroke:none"
         id="path32" />
      <path
         d="m 896.148,3050.34 -408.703,-235.91 -38.093,21.91 c 1.601,2.71 3.796,5.11 6.199,6.51 l 393.301,227.1 c 4.8,2.7 12.5,2.7 17.101,-0.11 l 23.297,-13.4 c 2.297,-1.4 4.797,-3.6 6.898,-6.1"
         style="fill:#33535f;fill-opacity:1;fill-rule:nonzero;stroke:none"
         id="path34" />
      <path
         d="m 2263.65,3681.93 -1320.099,-762.19 -6.801,19.5 1280.2,762.61 c 4.6,2.6 12,2.7 16.81,0.29 l 23.78,-13.8 c 2.41,-1.41 4.51,-3.7 6.11,-6.41"
         style="fill:#33535f;fill-opacity:1;fill-rule:nonzero;stroke:none"
         id="path36" />
      <path
         d="m 1033.95,1783.23 c -10.17,5.88 -18.43,20.8 -18.43,33.33 v 1652.61 c 0,12.53 8.8,27.76 19.65,34.03 l 976.22,563.02 c 10.85,6.26 27.9,6.58 38.08,0.7 10.18,-5.88 18.43,-20.8 18.43,-33.33 l 0.01,-1652.6 c 0,-12.53 -8.8,-27.77 -19.65,-34.03 l -976.23,-563.02 c -10.85,-6.27 -27.9,-6.59 -38.08,-0.71"
         style="fill:#fafaf9;fill-opacity:1;fill-rule:nonzero;stroke:none"
         id="path38" />
      <path
         d="m 1072.03,1783.94 976.23,563.02 c 10.85,6.26 19.65,21.5 19.65,34.03 l -0.01,1652.6 c 0,12.53 -8.8,17.61 -19.65,11.34 l -976.23,-563.02 c -10.85,-6.26 -19.65,-21.5 -19.65,-34.03 l 0.01,-1652.6 c 0,-12.53 8.8,-17.61 19.65,-11.34"
         style="fill:#ededeb;fill-opacity:1;fill-rule:nonzero;stroke:none"
         id="path40" />
      <path
         d="m 1179,3416.3 737.14,425.59 c 9.56,5.53 17.32,1.05 17.32,-10 v -6.9 c 0,-11.04 -7.76,-24.47 -17.32,-30 L 1178.99,3369.4 c -9.56,-5.52 -17.31,-1.04 -17.31,10 v 6.9 c 0.01,11.05 7.76,24.48 17.32,30"
         style="fill:#dadbd8;fill-opacity:1;fill-rule:nonzero;stroke:none"
         id="path42" />
      <path
         d="m 1179,3299.18 737.14,425.59 c 9.56,5.52 17.32,1.05 17.32,-10 v -6.9 c 0,-11.05 -7.76,-24.48 -17.32,-30 l -737.15,-425.59 c -9.56,-5.53 -17.31,-1.05 -17.31,10 v 6.9 c 0.01,11.05 7.76,24.48 17.32,30"
         style="fill:#dadbd8;fill-opacity:1;fill-rule:nonzero;stroke:none"
         id="path44" />
      <path
         d="m 1179,3182.06 737.14,425.59 c 9.56,5.52 17.32,1.04 17.32,-10 v -6.91 c 0,-11.04 -7.76,-24.47 -17.32,-30 l -737.15,-425.59 c -9.56,-5.52 -17.31,-1.05 -17.31,10 v 6.91 c 0.01,11.04 7.76,24.47 17.32,30"
         style="fill:#dadbd8;fill-opacity:1;fill-rule:nonzero;stroke:none"
         id="path46" />
      <path
         d="m 1179,3064.93 737.14,425.59 c 9.56,5.53 17.32,1.05 17.32,-10 v -6.9 c 0,-11.05 -7.76,-24.48 -17.32,-30 l -737.15,-425.59 c -9.56,-5.52 -17.31,-1.05 -17.31,10 v 6.9 c 0.01,11.05 7.76,24.48 17.32,30"
         style="fill:#dadbd8;fill-opacity:1;fill-rule:nonzero;stroke:none"
         id="path48" />
      <path
         d="m 1179,2947.8 737.14,425.6 c 9.56,5.52 17.32,1.05 17.32,-10 v -6.9 c 0,-11.05 -7.76,-24.48 -17.32,-30 l -737.15,-425.6 c -9.56,-5.52 -17.31,-1.05 -17.31,10 v 6.9 c 0.01,11.05 7.76,24.48 17.32,30"
         style="fill:#dadbd8;fill-opacity:1;fill-rule:nonzero;stroke:none"
         id="path50" />
      <path
         d="m 1179,2829.83 737.14,425.59 c 9.56,5.52 17.32,1.04 17.32,-10 v -6.91 c 0,-11.04 -7.76,-24.47 -17.32,-30 l -737.15,-425.59 c -9.56,-5.52 -17.31,-1.04 -17.31,10 v 6.91 c 0.01,11.04 7.76,24.47 17.32,30"
         style="fill:#dadbd8;fill-opacity:1;fill-rule:nonzero;stroke:none"
         id="path52" />
      <path
         d="m 1179,2712.7 737.14,425.59 c 9.56,5.53 17.32,1.05 17.32,-10 v -6.9 c 0,-11.05 -7.76,-24.48 -17.32,-30 L 1178.99,2665.8 c -9.56,-5.53 -17.31,-1.05 -17.31,10 v 6.9 c 0.01,11.05 7.76,24.48 17.32,30"
         style="fill:#dadbd8;fill-opacity:1;fill-rule:nonzero;stroke:none"
         id="path54" />
      <path
         d="m 1179,2595.58 737.14,425.59 c 9.56,5.52 17.32,1.04 17.32,-10 v -6.91 c 0,-11.04 -7.76,-24.47 -17.32,-30 l -737.15,-425.59 c -9.56,-5.52 -17.31,-1.04 -17.31,10 v 6.91 c 0.01,11.04 7.76,24.48 17.32,30"
         style="fill:#dadbd8;fill-opacity:1;fill-rule:nonzero;stroke:none"
         id="path56" />
      <path
         d="m 1179,2478.45 737.14,425.59 c 9.56,5.53 17.32,1.05 17.32,-10 v -6.9 c 0,-11.05 -7.76,-24.48 -17.32,-30 l -737.15,-425.59 c -9.56,-5.53 -17.31,-1.05 -17.31,10 v 6.9 c 0.01,11.05 7.76,24.48 17.32,30"
         style="fill:#dadbd8;fill-opacity:1;fill-rule:nonzero;stroke:none"
         id="path58" />
      <path
         d="m 1179,2361.32 737.14,425.6 c 9.56,5.52 17.32,1.05 17.32,-10 v -6.9 c 0,-11.05 -7.76,-24.48 -17.32,-30 l -737.15,-425.59 c -9.56,-5.53 -17.31,-1.05 -17.31,10 v 6.89 c 0.01,11.05 7.76,24.48 17.32,30"
         style="fill:#dadbd8;fill-opacity:1;fill-rule:nonzero;stroke:none"
         id="path60" />
      <path
         d="m 1179,2243.69 737.14,425.59 c 9.56,5.52 17.32,1.04 17.32,-10 v -6.91 c 0,-11.04 -7.76,-24.47 -17.32,-30 l -737.15,-425.59 c -9.56,-5.52 -17.31,-1.04 -17.31,10 v 6.91 c 0.01,11.04 7.76,24.48 17.32,30"
         style="fill:#dadbd8;fill-opacity:1;fill-rule:nonzero;stroke:none"
         id="path62" />
      <path
         d="m 1179,2126.56 737.14,425.59 c 9.56,5.53 17.32,1.05 17.32,-10 v -6.9 c 0,-11.04 -7.76,-24.48 -17.32,-30 l -737.15,-425.59 c -9.56,-5.52 -17.31,-1.05 -17.31,10 v 6.9 c 0.01,11.05 7.76,24.48 17.32,30"
         style="fill:#dadbd8;fill-opacity:1;fill-rule:nonzero;stroke:none"
         id="path64" />
      <path
         d="m 1179,2009.44 737.14,425.59 c 9.56,5.52 17.32,1.05 17.32,-10 v -6.9 c 0,-11.05 -7.76,-24.48 -17.32,-30 l -737.15,-425.59 c -9.56,-5.53 -17.31,-1.05 -17.31,10 v 6.9 c 0.01,11.04 7.76,24.47 17.32,30"
         style="fill:#dadbd8;fill-opacity:1;fill-rule:nonzero;stroke:none"
         id="path66" />
      <path
         d="m 1069.47,1782.65 c -10.8,-5 -26.1,-4.9 -35.5,0.6 -10.2,5.9 -18.4,20.8 -18.4,33.3 v 1652.57 c 0,6.31 2.2,13.2 5.7,19.4 l 36.9,-21.3 c -3.6,-6.09 -5.8,-13.1 -5.8,-19.29 V 1795.25 c 0,-11.5 7.5,-16.7 17.1,-12.6"
         style="fill:#dadbd8;fill-opacity:1;fill-rule:nonzero;stroke:none"
         id="path68" />
      <path
         d="m 1172.14,1704.83 c -10.18,5.88 -18.43,20.8 -18.43,33.33 v 1652.6 c 0,12.53 8.8,27.77 19.65,34.04 l 976.22,563.01 c 10.85,6.27 27.9,6.59 38.07,0.71 10.19,-5.88 18.44,-20.8 18.44,-33.33 l 0.01,-1652.6 c 0,-12.53 -8.8,-27.77 -19.65,-34.03 l -976.22,-563.03 c -10.86,-6.26 -27.91,-6.58 -38.09,-0.7"
         style="fill:#fafaf9;fill-opacity:1;fill-rule:nonzero;stroke:none"
         id="path70" />
      <path
         d="m 1210.23,1705.53 976.22,563.03 c 10.85,6.26 19.65,21.5 19.65,34.03 l -0.01,1652.6 c 0,12.53 -8.8,17.61 -19.65,11.35 l -976.23,-563.03 c -10.85,-6.26 -19.65,-21.5 -19.65,-34.03 l 0.02,-1652.6 c 0,-12.53 8.79,-17.61 19.65,-11.35"
         style="fill:#ededeb;fill-opacity:1;fill-rule:nonzero;stroke:none"
         id="path72" />
      <path
         d="m 1317.2,3337.9 737.13,425.59 c 9.57,5.53 17.32,1.05 17.32,-10 v -6.9 c 0,-11.05 -7.75,-24.47 -17.32,-30 L 1317.18,3291 c -9.56,-5.52 -17.32,-1.05 -17.31,10 v 6.9 c 0,11.05 7.76,24.48 17.33,30"
         style="fill:#dadbd8;fill-opacity:1;fill-rule:nonzero;stroke:none"
         id="path74" />
      <path
         d="m 1317.2,3220.78 737.13,425.59 c 9.57,5.52 17.32,1.04 17.32,-10 v -6.91 c 0,-11.04 -7.75,-24.47 -17.32,-30 l -737.15,-425.58 c -9.56,-5.53 -17.32,-1.05 -17.31,10 v 6.9 c 0,11.04 7.76,24.47 17.33,30"
         style="fill:#dadbd8;fill-opacity:1;fill-rule:nonzero;stroke:none"
         id="path76" />
      <path
         d="m 1317.2,3103.66 737.13,425.59 c 9.57,5.52 17.32,1.04 17.32,-10 v -6.91 c 0,-11.04 -7.75,-24.48 -17.32,-30 l -737.15,-425.59 c -9.56,-5.52 -17.32,-1.05 -17.31,10 v 6.91 c 0,11.04 7.76,24.47 17.33,30"
         style="fill:#dadbd8;fill-opacity:1;fill-rule:nonzero;stroke:none"
         id="path78" />
      <path
         d="m 1317.2,2986.53 737.13,425.59 c 9.57,5.52 17.32,1.04 17.32,-10 v -6.91 c 0,-11.04 -7.75,-24.47 -17.32,-30 l -737.15,-425.58 c -9.56,-5.53 -17.32,-1.05 -17.31,10 v 6.9 c 0,11.04 7.76,24.48 17.33,30"
         style="fill:#dadbd8;fill-opacity:1;fill-rule:nonzero;stroke:none"
         id="path80" />
      <path
         d="M 1317.2,2869.41 2054.33,3295 c 9.57,5.52 17.32,1.04 17.32,-10 v -6.91 c 0,-11.04 -7.75,-24.47 -17.32,-30 L 1317.18,2822.5 c -9.56,-5.52 -17.32,-1.05 -17.31,10 v 6.91 c 0,11.04 7.76,24.47 17.33,30"
         style="fill:#dadbd8;fill-opacity:1;fill-rule:nonzero;stroke:none"
         id="path82" />
      <path
         d="m 1317.2,2751.42 737.13,425.6 c 9.57,5.52 17.32,1.04 17.32,-10 v -6.91 c 0,-11.05 -7.75,-24.47 -17.32,-30 l -737.15,-425.59 c -9.56,-5.52 -17.32,-1.05 -17.31,10 v 6.9 c 0,11.05 7.76,24.48 17.33,30"
         style="fill:#dadbd8;fill-opacity:1;fill-rule:nonzero;stroke:none"
         id="path84" />
      <path
         d="m 1317.2,2634.3 737.13,425.59 c 9.57,5.52 17.32,1.05 17.32,-10 v -6.91 c 0,-11.04 -7.75,-24.47 -17.32,-30 l -737.15,-425.59 c -9.56,-5.52 -17.32,-1.04 -17.31,10 v 6.91 c 0,11.04 7.76,24.48 17.33,30"
         style="fill:#dadbd8;fill-opacity:1;fill-rule:nonzero;stroke:none"
         id="path86" />
      <path
         d="m 1317.2,2517.17 737.13,425.59 c 9.57,5.53 17.32,1.05 17.32,-10 v -6.9 c 0,-11.04 -7.75,-24.48 -17.32,-30 l -737.15,-425.59 c -9.56,-5.52 -17.32,-1.05 -17.31,10 v 6.9 c 0,11.05 7.76,24.48 17.33,30"
         style="fill:#dadbd8;fill-opacity:1;fill-rule:nonzero;stroke:none"
         id="path88" />
      <path
         d="m 1317.2,2400.05 737.13,425.59 c 9.57,5.52 17.32,1.05 17.32,-10 v -6.9 c 0,-11.05 -7.75,-24.48 -17.32,-30 l -737.15,-425.59 c -9.56,-5.53 -17.32,-1.05 -17.31,10 v 6.9 c 0,11.05 7.76,24.48 17.33,30"
         style="fill:#dadbd8;fill-opacity:1;fill-rule:nonzero;stroke:none"
         id="path90" />
      <path
         d="m 1317.2,2282.93 737.13,425.59 c 9.57,5.52 17.32,1.04 17.32,-10 v -6.91 c 0,-11.04 -7.75,-24.47 -17.32,-30 l -737.15,-425.59 c -9.56,-5.52 -17.32,-1.04 -17.31,10 v 6.91 c 0,11.04 7.76,24.47 17.33,30"
         style="fill:#dadbd8;fill-opacity:1;fill-rule:nonzero;stroke:none"
         id="path92" />
      <path
         d="m 1317.2,2165.28 737.13,425.6 c 9.57,5.52 17.32,1.05 17.32,-10 v -6.91 c 0,-11.04 -7.75,-24.48 -17.32,-30 l -737.15,-425.59 c -9.56,-5.52 -17.32,-1.04 -17.31,10 v 6.9 c 0,11.05 7.76,24.48 17.33,30"
         style="fill:#dadbd8;fill-opacity:1;fill-rule:nonzero;stroke:none"
         id="path94" />
      <path
         d="m 1317.2,2048.16 737.13,425.59 c 9.57,5.52 17.32,1.05 17.32,-10 v -6.9 c 0,-11.05 -7.75,-24.48 -17.32,-30 l -737.15,-425.59 c -9.56,-5.53 -17.32,-1.05 -17.31,10 v 6.9 c 0,11.05 7.76,24.48 17.33,30"
         style="fill:#dadbd8;fill-opacity:1;fill-rule:nonzero;stroke:none"
         id="path96" />
      <path
         d="m 1317.2,1931.04 737.13,425.59 c 9.57,5.52 17.32,1.04 17.32,-10 v -6.91 c 0,-11.04 -7.75,-24.47 -17.32,-30 l -737.15,-425.59 c -9.56,-5.52 -17.32,-1.04 -17.31,10 v 6.91 c 0,11.04 7.76,24.47 17.33,30"
         style="fill:#dadbd8;fill-opacity:1;fill-rule:nonzero;stroke:none"
         id="path98" />
      <path
         d="m 1207.66,1704.24 c -10.8,-5 -26.1,-4.89 -35.5,0.61 -10.2,5.89 -18.4,20.8 -18.4,33.3 v 1652.57 c 0,6.3 2.2,13.2 5.7,19.41 l 36.9,-21.31 c -3.61,-6.1 -5.8,-13.1 -5.8,-19.3 V 1716.85 c 0,-11.51 7.5,-16.71 17.1,-12.61"
         style="fill:#dadbd8;fill-opacity:1;fill-rule:nonzero;stroke:none"
         id="path100" />
      <path
         d="m 2629.55,3477.34 -285.2,-1235 -26.3,-113.6 c -6.2,-26.9 -30.6,-59.9 -54.5,-73.7 l -1692.202,-977 c -11.2,-6.5 -25.602,-10.1 -40,-10.7 -15.996,-0.7 -32.098,2.3 -43.903,9.2 l 8.703,37.7 c 0.301,1.2 0.602,2.4 0.899,3.7 l 9.5,41.3 41.402,179.2 262.199,1135.4 c 0.301,1.4 0.903,2.8 1.598,4.2 0.699,1.3 1.5,2.6 2.305,3.8 l 0.398,0.6 c 2,2.6 4.301,4.8 6.602,6.2 l 1445.099,834.29 316.3,182.61 c 4.8,2.8 12.59,2.8 17.4,0 l 23.3,-13.4 c 4.7,-2.8 7.6,-9.41 6.4,-14.8"
         style="fill:#273e47;fill-opacity:1;fill-rule:nonzero;stroke:none"
         id="path102" />
      <path
         d="m 2629.85,3479.84 c -0.21,3.5 -2.8,4.59 -6.7,2.3 l -1761.498,-1017 c -2.3,-1.3 -4.703,-3.6 -6.601,-6.2 l -40.602,23.5 c 2,2.6 4.301,4.8 6.602,6.2 l 1761.399,1016.9 c 4.8,2.8 12.59,2.8 17.4,0 l 23.3,-13.4 c 3.99,-2.4 6.7,-7.5 6.7,-12.3"
         style="fill:#33535f;fill-opacity:1;fill-rule:nonzero;stroke:none"
         id="path104" />
      <path
         d="m 855.051,2458.94 c -1.203,-1.6 -2.199,-3.3 -3.004,-4.9 -0.598,-1.3 -0.996,-2.5 -1.301,-3.6 L 600.051,1364.64 h -0.106 l -52.797,-228.8 -6.601,-28.6 v -0.1 l -9.199,-39.8 c -15.996,-0.7 -32.098,2.3 -43.903,9.2 l 8.703,37.7 c 0.301,1.2 0.602,2.4 0.899,3.7 l 9.5,41.3 41.402,179.2 262.199,1135.4 c 0.301,1.4 0.903,2.8 1.598,4.2 0.699,1.3 1.5,2.6 2.305,3.8 l 0.398,0.6 40.602,-23.5"
         style="fill:#17282f;fill-opacity:1;fill-rule:nonzero;stroke:none"
         id="path106" />
      <path
         d="m 549.488,1181.4 c 4.285,-2.47 6.453,-7.46 5.34,-12.28 l -14.281,-61.88 v -0.1 l -7.168,-31.02 c -1.234,-5.34 -6.141,-9.03 -11.609,-8.76 -12.692,0.63 -24.879,3.66 -34.325,9.18 -22.394,12.9 -40.593,45.8 -40.593,73.4 v 71.21 c 0,8.67 9.382,14.09 16.89,9.75 l 18.086,-10.45 c 3.481,-2.02 5.617,-5.76 5.617,-9.77 v -35.4 c 0,-13.39 19.215,-15.58 22.231,-2.52 l 3.019,13.09 c 1.703,7.37 10.047,10.99 16.598,7.21 l 20.195,-11.66"
         style="fill:#17282f;fill-opacity:1;fill-rule:nonzero;stroke:none"
         id="path108" />
      <path
         d="m 923.047,1445.32 -96.305,55.59 h -0.199 l -1,0.61 -0.098,-0.21 c -47.89,27.04 -113.539,23.05 -186.277,-18.96 -68.051,-39.2 -130.105,-104.66 -176.902,-180.39 -54.078,-87.2 -88.102,-188.17 -88.102,-278.66 0,-84.409 29.539,-143.679 77.324,-171.409 v -0.11 l 0.305,-0.09 97.781,-55.851 c 48.293,-30.781 116.465,-28.059 192.098,15.609 146.391,84.512 265.068,290.061 265.078,459.091 0,88.01 -32.203,148.68 -83.703,174.78"
         style="fill:#26b6a6;fill-opacity:1;fill-rule:nonzero;stroke:none"
         id="path110" />
      <path
         d="m 547.668,796.922 -25.074,14.328 24.996,-14.281 c 0.023,-0.02 0.051,-0.028 0.078,-0.047 m -96.18,54.887 -0.023,0.011 v 0.078 c 0.008,-0.007 0.015,-0.007 0.023,-0.007 v -0.082 m -20.367,14.781 c -25.734,22.711 -43.973,56.91 -52.144,101.101 8.171,-44.179 26.418,-78.371 52.144,-101.101 m -52.156,101.172 c -0.012,0.058 -0.024,0.117 -0.035,0.179 0.011,-0.062 0.023,-0.121 0.035,-0.179 m -0.082,0.437 v 0 0 m -4.719,55.111 v 0.01 c 0,60.99 15.441,126.7 42.066,189.75 -26.613,-63.06 -42.062,-128.79 -42.066,-189.76"
         style="fill:#d5d7d4;fill-opacity:1;fill-rule:nonzero;stroke:none"
         id="path112" />
      <path
         d="m 547.59,796.969 -24.996,14.281 -70.824,40.469 -0.282,0.09 v 0.082 c -0.008,0 -0.015,0 -0.023,0.007 v 0.024 c -7.211,4.18 -14.004,9.078 -20.344,14.668 -25.726,22.73 -43.973,56.922 -52.144,101.101 -0.004,0.02 -0.008,0.039 -0.012,0.071 -0.012,0.058 -0.024,0.117 -0.035,0.179 -0.016,0.09 -0.032,0.168 -0.047,0.258 v 0 c -3.098,16.942 -4.715,35.331 -4.719,55.111 0.004,60.97 15.453,126.7 42.066,189.76 12.887,30.52 28.391,60.41 46.036,88.85 v 0 0 l 102.3,-59 c -54.101,-87.2 -88,-188 -88,-278.4 0,-80.649 26.969,-138.329 71.024,-167.551"
         style="fill:#1db3a0;fill-opacity:1;fill-rule:nonzero;stroke:none"
         id="path114" />
      <path
         d="m 855.988,1484.03 -29.246,16.88 h -0.199 l -0.984,0.6 0.007,0.01 1,-0.6 h 0.204 l 29.218,-16.89 m -30.543,17.28 c -5.918,3.35 -12.105,6.21 -18.55,8.59 6.445,-2.37 12.636,-5.24 18.554,-8.57 l -0.004,-0.02"
         style="fill:#75898d;fill-opacity:1;fill-rule:nonzero;stroke:none"
         id="path116" />
      <path
         d="m 564.566,1242.92 v 0 0 l -102.3,59 c 46.8,75.8 108.902,141.2 176.902,180.4 42.457,24.53 82.535,36.1 118.066,36.1 17.782,0 34.426,-2.9 49.661,-8.52 6.445,-2.38 12.632,-5.24 18.55,-8.59 l 0.004,0.02 c 0.008,-0.01 0.012,-0.01 0.016,-0.01 l 0.094,0.19 0.984,-0.6 h 0.199 l 29.246,-16.88 65.078,-37.61 c -18.168,8.82 -38.691,13.38 -60.996,13.38 -35.636,0 -75.843,-11.64 -118.406,-36.18 -68.098,-39.4 -130.199,-104.9 -177.098,-180.7"
         style="fill:#5cc8bc;fill-opacity:1;fill-rule:nonzero;stroke:none"
         id="path118" />
      <path
         d="m 778.316,1090.25 v -92.969 c 0,-4.59 -1.086,-9.16 -3.242,-13.73 -2.164,-4.59 -4.73,-7.731 -7.699,-9.442 l -51.078,-29.488 c -2.977,-1.723 -5.543,-1.551 -7.703,0.539 -2.164,2.078 -3.242,5.399 -3.242,9.988 v 92.972 l -62.832,-36.28 c -2.973,-1.72 -5.543,-1.54 -7.7,0.55 -2.168,2.07 -3.242,5.4 -3.242,9.98 v 63.04 c 0,4.57 1.074,9.14 3.242,13.73 2.157,4.57 4.727,7.72 7.7,9.44 l 62.832,36.27 v 92.97 c 0,4.57 1.078,9.15 3.242,13.73 2.16,4.57 4.726,7.72 7.703,9.44 l 51.078,29.49 c 2.969,1.71 5.535,1.53 7.699,-0.55 2.156,-2.08 3.242,-5.41 3.242,-9.98 v -92.97 l 62.426,36.04 c 2.969,1.72 5.539,1.53 7.699,-0.54 2.164,-2.09 3.243,-5.42 3.243,-9.99 v -63.04 c 0,-4.58 -1.079,-9.16 -3.243,-13.73 -2.16,-4.58 -4.73,-7.72 -7.699,-9.43 l -62.426,-36.04"
         style="fill:#ffffff;fill-opacity:1;fill-rule:nonzero;stroke:none"
         id="path120" />
      <path
         d="m 3348.63,2535.11 -116.84,3.24 c -7.85,6.72 -130.55,145.22 -130.55,145.22 0,0 -44.16,-69.68 -44.91,-74.12 -0.73,-4.43 120.33,-133.9 132.3,-146.96 6.62,-7.23 12.69,-13.01 28.56,-13.96 31.66,-1.9 150.22,-10.24 150.22,-10.24 l -18.78,96.82"
         style="fill:#c35363;fill-opacity:1;fill-rule:nonzero;stroke:none"
         id="path122" />
      <path
         d="m 2100.98,779.898 c -10.18,5.872 -18.43,20.801 -18.43,33.321 V 2367.48 c 0,12.53 8.79,27.77 19.64,34.04 l 976.22,563.01 c 10.85,6.27 27.9,6.59 38.08,0.71 10.18,-5.88 18.43,-20.8 18.43,-33.33 l 0.02,-1554.26 c 0,-12.53 -8.8,-27.76 -19.65,-34.03 L 2139.06,780.602 c -10.85,-6.27 -27.9,-6.582 -38.08,-0.704"
         style="fill:#26b6a6;fill-opacity:1;fill-rule:nonzero;stroke:none"
         id="path124" />
      <path
         d="m 2118.9,775.68 c -3.71,0 -7.37,0.441 -10.72,1.332 3.36,-0.883 7.02,-1.321 10.73,-1.321 1.28,0 2.58,0.047 3.86,0.161 -1.29,-0.114 -2.61,-0.172 -3.87,-0.172 m 3.88,0.172 c 0.02,0 0.03,0 0.04,0 -0.01,0 -0.02,0 -0.04,0 m 1.41,0.128 c 1.89,0.219 3.77,0.551 5.59,0.989 l -1.17,-0.289 c -1.48,-0.289 -2.96,-0.59 -4.42,-0.7 m 6.01,1.102 c 0.17,0.039 0.34,0.09 0.51,0.129 -0.04,-0.012 -0.07,-0.02 -0.11,-0.031 l -0.4,-0.098 m -28.56,2.449 c -0.22,0.11 -0.43,0.231 -0.63,0.348 -0.2,0.121 -0.41,0.242 -0.6,0.363 0.19,-0.121 0.38,-0.23 0.57,-0.344 0.21,-0.128 0.43,-0.25 0.66,-0.367"
         style="fill:#b4b6b4;fill-opacity:1;fill-rule:nonzero;stroke:none"
         id="path126" />
      <path
         d="m 2086.21,2382.8 c 0.63,1.41 1.32,2.71 2.1,4.08 v 0 0 h 0.01 c -0.77,-1.33 -1.48,-2.7 -2.11,-4.08"
         style="fill:#1f3239;fill-opacity:1;fill-rule:nonzero;stroke:none"
         id="path128" />
      <path
         d="m 2118.91,775.691 c -3.71,0 -7.37,0.438 -10.73,1.321 -2.35,0.617 -4.56,1.457 -6.54,2.519 -0.23,0.117 -0.45,0.239 -0.66,0.367 -0.19,0.114 -0.38,0.223 -0.57,0.344 -3.59,2.207 -6.96,5.559 -9.71,9.539 -4.89,6.801 -8.09,15.598 -8.09,23.399 v 1554.3 c 0,3.2 0.5,6.4 1.5,9.7 0.49,1.7 1.1,3.3 1.79,4.9 0.1,0.24 0.21,0.48 0.31,0.72 0.63,1.38 1.34,2.75 2.11,4.08 l 36.78,-21.3 v 0 h 0.11 l -0.91,-1.5 c -3,-5.7 -4.9,-12.1 -4.9,-17.8 V 791.879 c 0,-2.199 0.3,-4.199 0.81,-5.899 0.79,-2.601 2.09,-4.601 3.8,-6 1.2,-0.898 2.5,-1.5 3.99,-1.898 l 2.31,-0.203 2.69,0.402 0.61,0.098 1.99,0.601 -1.4,-0.601 c -1.07,-0.481 -2.23,-0.777 -3.49,-1.168 -0.17,-0.039 -0.34,-0.09 -0.51,-0.129 l -0.42,-0.113 c -1.82,-0.438 -3.7,-0.77 -5.59,-0.989 -0.03,0 -0.06,0 -0.08,0 -0.43,-0.05 -0.85,-0.089 -1.29,-0.128 -0.01,0 -0.02,0 -0.04,0 0,0 0,0 -0.01,0 -1.28,-0.114 -2.58,-0.161 -3.86,-0.161"
         style="fill:#19b19d;fill-opacity:1;fill-rule:nonzero;stroke:none"
         id="path130" />
      <path
         d="m 2088.32,2386.88 h -0.01 c 2.75,4.81 6.38,9.18 10.48,12.33 -4.05,-3.16 -7.68,-7.5 -10.47,-12.33"
         style="fill:#60777c;fill-opacity:1;fill-rule:nonzero;stroke:none"
         id="path132" />
      <path
         d="m 2512.16,2637.96 566.24,326.62 c 3.3,1.88 7.15,3.21 11.2,4 -4.05,-0.8 -7.9,-2.15 -11.19,-4.05 l -566.25,-326.57 m 618.7,310.49 c -3.38,7.13 -8.56,13.43 -14.37,16.79 -2.96,1.7 -6.49,2.89 -10.29,3.56 3.8,-0.66 7.34,-1.83 10.31,-3.52 5.82,-3.35 11,-9.67 14.35,-16.83"
         style="fill:#ffffff;fill-opacity:1;fill-rule:nonzero;stroke:none"
         id="path134" />
      <path
         d="m 2125.1,2365.58 v 0 l -36.78,21.3 c 2.79,4.83 6.42,9.17 10.47,12.33 1.11,0.85 2.25,1.61 3.41,2.27 l 409.96,236.48 566.25,326.57 c 3.29,1.9 7.14,3.25 11.19,4.05 2.93,0.57 5.97,0.86 8.97,0.86 2.6,0 5.17,-0.21 7.63,-0.64 3.8,-0.67 7.33,-1.86 10.29,-3.56 5.81,-3.36 10.99,-9.66 14.37,-16.79 1.94,-4.15 3.27,-8.58 3.74,-12.87 -1.08,6.63 -5.09,10.38 -10.57,10.38 -2.62,0 -5.58,-0.86 -8.72,-2.68 l -976.3,-563 c -5.4,-3.2 -10.3,-8.6 -13.91,-14.7"
         style="fill:#4ac2b6;fill-opacity:1;fill-rule:nonzero;stroke:none"
         id="path136" />
      <path
         d="m 2246.03,2314.62 737.13,425.6 c 9.57,5.52 17.32,1.04 17.32,-10 v -6.91 c 0,-11.05 -7.75,-24.48 -17.32,-30 l -737.15,-425.59 c -9.56,-5.53 -17.31,-1.05 -17.3,10 v 6.9 c 0,11.05 7.75,24.48 17.32,30"
         style="fill:#fafaf9;fill-opacity:1;fill-rule:nonzero;stroke:none"
         id="path138" />
      <path
         d="m 2246.03,2171.31 737.13,425.6 c 9.57,5.52 17.32,1.05 17.32,-10 v -6.9 c 0,-11.05 -7.75,-24.48 -17.32,-30 l -737.15,-425.6 c -9.56,-5.52 -17.31,-1.04 -17.3,10 v 6.9 c 0,11.05 7.75,24.48 17.32,30"
         style="fill:#fafaf9;fill-opacity:1;fill-rule:nonzero;stroke:none"
         id="path140" />
      <path
         d="m 2246.03,2028.01 737.13,425.59 c 9.57,5.53 17.32,1.05 17.32,-10 v -6.9 c 0,-11.04 -7.75,-24.48 -17.32,-30 l -737.15,-425.59 c -9.56,-5.52 -17.31,-1.05 -17.3,10 v 6.9 c 0,11.05 7.75,24.48 17.32,30"
         style="fill:#fafaf9;fill-opacity:1;fill-rule:nonzero;stroke:none"
         id="path142" />
      <path
         d="m 2246.03,1884.71 737.13,425.59 c 9.57,5.52 17.32,1.04 17.32,-10 v -6.91 c 0,-11.04 -7.75,-24.47 -17.32,-30 L 2246.01,1837.8 c -9.56,-5.52 -17.31,-1.04 -17.3,10 v 6.91 c 0,11.04 7.75,24.48 17.32,30"
         style="fill:#fafaf9;fill-opacity:1;fill-rule:nonzero;stroke:none"
         id="path144" />
      <path
         d="m 2246.03,1741.4 737.13,425.59 c 9.57,5.53 17.32,1.05 17.32,-10 v -6.9 c 0,-11.05 -7.75,-24.48 -17.32,-30 L 2246.01,1694.5 c -9.56,-5.52 -17.31,-1.05 -17.3,10 v 6.9 c 0,11.05 7.75,24.48 17.32,30"
         style="fill:#fafaf9;fill-opacity:1;fill-rule:nonzero;stroke:none"
         id="path146" />
      <path
         d="m 2246.03,1598.1 737.13,425.59 c 9.57,5.53 17.32,1.05 17.32,-10 v -6.9 c 0,-11.05 -7.75,-24.48 -17.32,-30 l -737.15,-425.6 c -9.56,-5.52 -17.31,-1.04 -17.3,10 v 6.91 c 0,11.04 7.75,24.47 17.32,30"
         style="fill:#fafaf9;fill-opacity:1;fill-rule:nonzero;stroke:none"
         id="path148" />
      <path
         d="m 2246.03,1454.8 737.13,425.59 c 9.57,5.52 17.32,1.04 17.32,-10 v -6.91 c 0,-11.04 -7.75,-24.47 -17.32,-30 l -737.15,-425.59 c -9.56,-5.53 -17.31,-1.05 -17.3,10 v 6.91 c 0,11.04 7.75,24.47 17.32,30"
         style="fill:#fafaf9;fill-opacity:1;fill-rule:nonzero;stroke:none"
         id="path150" />
      <path
         d="m 2246.03,1311.49 737.13,425.59 c 9.57,5.52 17.32,1.05 17.32,-10 v -6.9 c 0,-11.05 -7.75,-24.48 -17.32,-30 l -737.15,-425.59 c -9.56,-5.53 -17.31,-1.05 -17.3,10 v 6.9 c 0,11.05 7.75,24.48 17.32,30"
         style="fill:#fafaf9;fill-opacity:1;fill-rule:nonzero;stroke:none"
         id="path152" />
      <path
         d="m 2246.03,1168.18 737.13,425.6 c 9.57,5.52 17.32,1.04 17.32,-10 v -6.91 c 0,-11.04 -7.75,-24.48 -17.32,-30 l -737.15,-425.59 c -9.56,-5.52 -17.31,-1.04 -17.3,10 v 6.9 c 0,11.05 7.75,24.48 17.32,30"
         style="fill:#fafaf9;fill-opacity:1;fill-rule:nonzero;stroke:none"
         id="path154" />
      <path
         d="m 2246.03,1024.88 737.13,425.59 c 9.57,5.52 17.32,1.05 17.32,-10 v -6.9 c 0,-11.05 -7.75,-24.48 -17.32,-30 L 2246.01,977.969 c -9.56,-5.52 -17.31,-1.039 -17.3,10 v 6.91 c 0,11.041 7.75,24.481 17.32,30.001"
         style="fill:#fafaf9;fill-opacity:1;fill-rule:nonzero;stroke:none"
         id="path156" />
      <path
         d="m 3370.42,2555.37 h 138.74 c 99.09,0 179.42,80.32 179.42,179.42 0,87.86 -71.23,159.08 -159.08,159.08 -87.86,0 -159.08,-71.22 -159.08,-159.08 v -179.42"
         style="fill:#17282f;fill-opacity:1;fill-rule:nonzero;stroke:none"
         id="path158" />
      <path
         d="m 3652.79,2831.18 38.5,20.68 c -5.46,11.03 -18.51,15.35 -29.15,9.64 -10.63,-5.71 -14.82,-19.28 -9.35,-30.32"
         style="fill:#17282f;fill-opacity:1;fill-rule:nonzero;stroke:none"
         id="path160" />
      <path
         d="m 3650.39,2826.82 40.93,-15.31 c 4.69,11.38 -0.67,24.04 -11.98,28.27 -11.3,4.23 -24.27,-1.58 -28.95,-12.96"
         style="fill:#17282f;fill-opacity:1;fill-rule:nonzero;stroke:none"
         id="path162" />
      <path
         d="m 3513.33,2423.04 -193.26,8.37 c -17.12,23.48 -16.65,85.62 0.55,105.48 l 213.93,-5.85 -21.22,-108"
         style="fill:#26b6a6;fill-opacity:1;fill-rule:nonzero;stroke:none"
         id="path164" />
      <path
         d="m 3395.58,1223.85 c 1.61,-20.25 1.57,-26.3 1.57,-38.85 0,-12.55 0,-76.13 0,-76.13 h 66.23 v 44.66 c 0,20.19 1.65,40.34 4.95,60.26 l -72.75,10.06"
         style="fill:#c35363;fill-opacity:1;fill-rule:nonzero;stroke:none"
         id="path166" />
      <path
         d="m 3397.11,1141.51 v 9.48 c -1.88,-14.44 -43.01,-68.59 -69.28,-92.56 -20.9,-19.05 -49.4,-41.06 -56.64,-62.301 -7.54,-22.098 33.66,-30.848 60.67,-28.137 31.62,3.156 56.29,22.149 67.98,35.558 17.19,19.71 21.33,32.74 29.35,43.58 8.01,10.85 44.01,33.05 48.34,45.6 2.39,6.9 -0.44,22 -3.78,34.77 -3.08,11.71 -6.4,24.59 -10.4,23.49 -0.01,-1.43 0,-7.22 0,-7.22 -4.81,-5.33 -18.11,-10.62 -33.12,-11.2 -9.69,-0.37 -33.19,1.55 -33.12,8.94"
         style="fill:#17282f;fill-opacity:1;fill-rule:nonzero;stroke:none"
         id="path168" />
      <path
         d="m 3463.35,1143.77 c -4.81,-5.33 -18.12,-10.62 -33.12,-11.2 -9.68,-0.37 -33.19,1.55 -33.11,8.94 v 9.48 c -1.89,-14.44 -43.01,-68.59 -69.29,-92.56 -5.01,-4.56 -10.45,-9.3 -15.92,-14.14 -11.11,-12.38 -7.96,-23.18 18.15,-25.43 26.12,-2.25 49.08,13.5 68.88,37.82 19.81,24.3 64.41,87.09 64.41,87.09"
         style="fill:#c35363;fill-opacity:1;fill-rule:nonzero;stroke:none"
         id="path170" />
      <path
         d="m 3597.85,1111.71 c 1.28,-16.03 1.34,-32.76 1.57,-39.91 v -76.128 h 66.23 v 44.648 c 0,20.2 1.65,40.35 4.94,60.27 l -72.74,11.12"
         style="fill:#c35363;fill-opacity:1;fill-rule:nonzero;stroke:none"
         id="path172" />
      <path
         d="m 3599.39,1028.32 v 9.47 c -1.88,-14.44 -43.02,-68.591 -69.3,-92.548 -20.89,-19.062 -49.39,-41.07 -56.64,-62.312 -7.54,-22.09 33.67,-30.84 60.69,-28.141 31.61,3.16 56.28,22.152 67.97,35.563 17.19,19.707 21.33,32.738 29.35,43.589 8.02,10.848 44.01,33.039 48.34,45.59 2.38,6.899 -0.44,21.999 -3.79,34.769 -3.07,11.71 -6.4,24.58 -10.39,23.49 -0.02,-1.43 0,-7.22 0,-7.22 -4.81,-5.33 -18.11,-10.62 -33.11,-11.19 -9.69,-0.38 -33.21,1.54 -33.12,8.94"
         style="fill:#17282f;fill-opacity:1;fill-rule:nonzero;stroke:none"
         id="path174" />
      <path
         d="m 3665.61,1030.57 c -4.8,-5.33 -18.1,-10.62 -33.1,-11.19 -9.69,-0.37 -33.21,1.54 -33.12,8.94 v 9.47 c -1.88,-14.44 -43.02,-68.591 -69.3,-92.548 -5,-4.57 -10.45,-9.312 -15.91,-14.152 -11.11,-12.379 -7.95,-23.18 18.15,-25.43 26.11,-2.25 49.07,13.512 68.88,37.82 19.81,24.301 64.4,87.09 64.4,87.09"
         style="fill:#c35363;fill-opacity:1;fill-rule:nonzero;stroke:none"
         id="path176" />
      <path
         d="m 3395.58,1192.45 c -14.17,116.75 -37.42,318.51 -44.23,362.59 -6.31,40.87 9.56,390.36 19.24,501.28 l 344.93,18.48 c 26.27,-112.42 0.7,-264 -8.29,-358.68 -8.75,-92.14 -19.58,-199.83 -19.58,-199.83 0,0 26.96,-93.88 19.82,-168.63 -4.55,-47.05 -25.68,-189.22 -35.74,-249.98 -17.79,-11.03 -50.67,-12.85 -75.68,1 1.16,-12.9 -12.28,157.38 -20.24,226.17 -11.04,95.53 -15.2,165.17 -24.99,220.92 -12.33,69.57 -16.59,342.2 -16.59,342.2 l -39.73,-309.26 c 0,0 6.27,-42.06 6.27,-100.48 0,-69.03 -25.48,-226.07 -33.5,-284.7 -17.43,-12.11 -52.65,-15.87 -71.69,-1.08"
         style="fill:#33535f;fill-opacity:1;fill-rule:nonzero;stroke:none"
         id="path178" />
      <path
         d="m 3534.23,1887.97 c 0,0 -63.03,22.1 -98.93,55.07 0,0 24.44,-42.2 73.92,-64.64 l 0.52,-181.05 24.49,190.62"
         style="fill:#273e47;fill-opacity:1;fill-rule:nonzero;stroke:none"
         id="path180" />
      <path
         d="m 3584.44,2529.6 c 0,0 93.7,-10.78 104.91,-15.8 -57.11,-62.53 3.67,-114.33 3.67,-114.33 l -43.41,-191.36 c 37.46,-47.97 58.87,-84.92 67.84,-142.07 -40.15,-70.73 -265.68,-80.56 -348.32,-27.85 7.18,98.74 23.22,169.41 17.89,199.06 -39.39,121.22 -27.12,146.64 -23.43,174.32 7.21,54.08 60.88,101.22 91.56,120.98 0,0 22.97,0 28.62,0 l 100.67,-2.95"
         style="fill:#ededeb;fill-opacity:1;fill-rule:nonzero;stroke:none"
         id="path182" />
      <path
         d="m 3422.67,2815.99 c -16.8,-9.93 -37.57,-52.19 -35.52,-140.79 1.74,-75.09 26.08,-93.64 38.3,-98.99 12.22,-5.34 35.8,-2.09 58.71,1.73 v -45.07 c 0,0 -31.67,-36.78 -29.68,-57.44 1.99,-20.67 45.73,-25.55 75.37,-5.37 29.63,20.2 54.59,59.54 54.59,59.54 l -0.52,103.61 c 0,0 13.49,-13.09 36.36,6.9 18.88,16.51 25.23,44.33 10.53,59.27 -14.72,14.93 -41.91,10.87 -52.34,-10.43 0,0 -12.73,35.37 -65.51,52.62 -47.69,15.59 -73.61,33.53 -90.29,74.42"
         style="fill:#c35363;fill-opacity:1;fill-rule:nonzero;stroke:none"
         id="path184" />
      <path
         d="m 3476.08,2694.06 c -0.27,-5.41 3.73,-10 8.95,-10.24 5.2,-0.25 9.64,3.94 9.92,9.35 0.27,5.41 -3.73,10 -8.95,10.24 -5.2,0.25 -9.65,-3.94 -9.92,-9.35"
         style="fill:#17282f;fill-opacity:1;fill-rule:nonzero;stroke:none"
         id="path186" />
      <path
         d="m 3473.56,2630.41 -21.93,-7 c 1.82,-6.27 8.21,-9.8 14.26,-7.86 6.06,1.93 9.5,8.58 7.67,14.86"
         style="fill:#aa3b4b;fill-opacity:1;fill-rule:nonzero;stroke:none"
         id="path188" />
      <path
         d="m 3398.66,2723.06 19.11,13.24 c -3.49,5.45 -10.6,6.91 -15.87,3.26 -5.27,-3.67 -6.73,-11.05 -3.24,-16.5"
         style="fill:#17282f;fill-opacity:1;fill-rule:nonzero;stroke:none"
         id="path190" />
      <path
         d="m 3503.56,2716.07 -19.1,13.24 c 3.48,5.45 10.58,6.91 15.86,3.25 5.28,-3.65 6.73,-11.04 3.24,-16.49"
         style="fill:#17282f;fill-opacity:1;fill-rule:nonzero;stroke:none"
         id="path192" />
      <path
         d="m 3403.06,2700.89 c -0.26,-5.42 3.73,-10 8.95,-10.24 5.2,-0.25 9.65,3.94 9.92,9.34 0.27,5.41 -3.73,10 -8.94,10.25 -5.21,0.24 -9.65,-3.94 -9.93,-9.35"
         style="fill:#17282f;fill-opacity:1;fill-rule:nonzero;stroke:none"
         id="path194" />
      <path
         d="m 3447.61,2706.3 -1.5,-56.85 -29.91,9.27 z"
         style="fill:#aa3b4b;fill-opacity:1;fill-rule:nonzero;stroke:none"
         id="path196" />
      <path
         d="m 3484.16,2577.94 c 24.15,3.16 73.82,17.44 81.57,37.08 0,0 -2.58,-12.35 -17.42,-25.07 -14.85,-12.71 -64.15,-27.04 -64.15,-27.04 v 15.03"
         style="fill:#aa3b4b;fill-opacity:1;fill-rule:nonzero;stroke:none"
         id="path198" />
      <path
         d="m 3668.99,2293.57 -79.91,-116.68 60.53,31.22 z"
         style="fill:#dadbd8;fill-opacity:1;fill-rule:nonzero;stroke:none"
         id="path200" />
      <path
         d="m 3631.98,2488.3 c -22.06,-22.83 -187.48,-193.94 -187.48,-193.94 0,0 -184.11,18.16 -246.63,36.04 -19.7,5.64 -35.64,32.63 -39.97,55.33 -4.35,22.7 -21.91,25.1 -21.91,25.1 v -45.4 c -1.59,-11.5 -7.21,-17.46 -23.64,-17.82 -63.22,-1.39 -92.51,17.82 -100.22,-16.51 -4.91,-21.9 4.62,-46.86 46.39,-58.3 58.57,-16.05 90.9,-8.03 126.58,-16.88 27.51,-6.82 219.33,-43.31 257.05,-51.55 19.96,-4.36 35.15,-2.99 56.81,18.45 21.65,21.44 184.44,173.32 184.44,173.32 49.71,49.68 35.17,101.32 7.39,116.6 -17.42,9.57 -36.74,-1.62 -58.81,-24.44"
         style="fill:#c35363;fill-opacity:1;fill-rule:nonzero;stroke:none"
         id="path202" />
      <path
         d="m 3689.35,2513.8 c 12.15,-4.93 26.95,-17.78 28.1,-51.23 1.14,-33.45 -23.5,-63.77 -52.59,-98.57 -29.09,-34.79 -37.85,-43.99 -37.85,-43.99 0,0 -73.68,26.74 -86.15,81.51 0,0 55.47,58.72 72.12,77.55 16.65,18.85 47.19,47.67 76.37,34.73"
         style="fill:#26b6a6;fill-opacity:1;fill-rule:nonzero;stroke:none"
         id="path204" />
      <path
         d="m 3309.34,3779.23 69.52,-40.14 c -0.35,3.11 -0.58,6.19 -0.58,9.21 v 20.13 c 0,35.84 25.15,50.37 56.2,32.45 12.57,-7.25 24.13,-18.75 33.48,-32.21 5.09,45.07 40.45,61.85 83.39,37.06 46.44,-26.81 84.08,-92.01 84.08,-145.62 v -30.13 c 0,-13.89 -2.57,-25.59 -7.11,-34.91 l 57.73,-33.34 c 17.22,-9.94 31.17,-34.11 31.17,-53.99 0,-19.88 -13.95,-27.94 -31.17,-18 l -376.71,217.5 c -17.22,9.94 -31.17,34.11 -31.17,53.99 0,19.88 13.95,27.94 31.17,18"
         style="fill:#e7e8e5;fill-opacity:1;fill-rule:nonzero;stroke:none"
         id="path206" />
      <path
         d="m 3011.85,3576.68 52.46,-30.29 c -0.26,2.34 -0.44,4.66 -0.44,6.94 v 15.2 c 0,27.05 18.99,38.01 42.41,24.49 9.49,-5.47 18.22,-14.16 25.28,-24.31 3.84,34.01 30.53,46.68 62.94,27.97 35.04,-20.23 63.44,-69.44 63.44,-109.91 v -22.73 c 0,-10.49 -1.93,-19.31 -5.37,-26.35 l 43.58,-25.15 c 13,-7.51 23.53,-25.75 23.53,-40.75 0,-15 -10.53,-21.09 -23.53,-13.59 l -284.3,164.14 c -13,7.51 -23.53,25.75 -23.53,40.76 0,15 10.53,21.08 23.53,13.58"
         style="fill:#e7e8e5;fill-opacity:1;fill-rule:nonzero;stroke:none"
         id="path208" />
    </g>
  </g>
</svg>
